# xmcd CD database file
#
# Track frame offsets:
#	150
#	20718
#	35390
#	54873
#	68842
#	90452
#	106390
#	123630
#	142453
#	168877
#	189288
#	205853
#	228548
#	247048
#	269305
#	288429
#
# Disc length: 4265 seconds
#
# Revision: 0
# Processed by: cddbd v1.5.2PL0 Copyright (c) Steve Scherf et al.
# Submitted via: CDex 1.70beta3
#
DISCID=e910a710
DTITLE=オーラルヴァンパイア - ZOLTANK
DYEAR=2010
DGENRE=Industrial and Electronica
TTITLE0=フレアスタック
TTITLE1=湘南族 -cannibal coast-
TTITLE2=Freeeeze!!
TTITLE3=V. マドンナスキゾイド
TTITLE4=69 Balloons
TTITLE5=Transcrypt
TTITLE6=Hot Blood Workout
TTITLE7=Innsmouth
TTITLE8=Border of the Dead
TTITLE9=voodoovocoder
TTITLE10=スリヰクフ
TTITLE11=PNFPN
TTITLE12=Economical Animal Superstar
TTITLE13=Darkwave Surfer
TTITLE14=カイドク
TTITLE15=MAD SPORTS
EXTD=YEAR: 2010
EXTT0=
EXTT1=
EXTT2=
EXTT3=
EXTT4=
EXTT5=
EXTT6=
EXTT7=
EXTT8=
EXTT9=
EXTT10=
EXTT11=
EXTT12=
EXTT13=
EXTT14=
EXTT15=
PLAYORDER=
